<svg id="visual" viewBox="0 0 3840 2160" width="3840" height="2160" xmlns="http://www.w3.org/2000/svg" xmlns:xlink="http://www.w3.org/1999/xlink" version="1.1"><rect x="0" y="0" width="3840" height="2160" fill="#001220"></rect><defs><linearGradient id="grad1_0" x1="43.8%" y1="0%" x2="100%" y2="100%"><stop offset="14.444444444444446%" stop-color="#fbae3c" stop-opacity="1"></stop><stop offset="85.55555555555554%" stop-color="#fbae3c" stop-opacity="1"></stop></linearGradient></defs><defs><linearGradient id="grad1_1" x1="43.8%" y1="0%" x2="100%" y2="100%"><stop offset="14.444444444444446%" stop-color="#fbae3c" stop-opacity="1"></stop><stop offset="85.55555555555554%" stop-color="#e1685e" stop-opacity="1"></stop></linearGradient></defs><defs><linearGradient id="grad1_2" x1="43.8%" y1="0%" x2="100%" y2="100%"><stop offset="14.444444444444446%" stop-color="#96446e" stop-opacity="1"></stop><stop offset="85.55555555555554%" stop-color="#e1685e" stop-opacity="1"></stop></linearGradient></defs><defs><linearGradient id="grad1_3" x1="43.8%" y1="0%" x2="100%" y2="100%"><stop offset="14.444444444444446%" stop-color="#96446e" stop-opacity="1"></stop><stop offset="85.55555555555554%" stop-color="#3d3056" stop-opacity="1"></stop></linearGradient></defs><defs><linearGradient id="grad1_4" x1="43.8%" y1="0%" x2="100%" y2="100%"><stop offset="14.444444444444446%" stop-color="#001220" stop-opacity="1"></stop><stop offset="85.55555555555554%" stop-color="#3d3056" stop-opacity="1"></stop></linearGradient></defs><defs><linearGradient id="grad2_0" x1="0%" y1="0%" x2="56.3%" y2="100%"><stop offset="14.444444444444446%" stop-color="#fbae3c" stop-opacity="1"></stop><stop offset="85.55555555555554%" stop-color="#fbae3c" stop-opacity="1"></stop></linearGradient></defs><defs><linearGradient id="grad2_1" x1="0%" y1="0%" x2="56.3%" y2="100%"><stop offset="14.444444444444446%" stop-color="#e1685e" stop-opacity="1"></stop><stop offset="85.55555555555554%" stop-color="#fbae3c" stop-opacity="1"></stop></linearGradient></defs><defs><linearGradient id="grad2_2" x1="0%" y1="0%" x2="56.3%" y2="100%"><stop offset="14.444444444444446%" stop-color="#e1685e" stop-opacity="1"></stop><stop offset="85.55555555555554%" stop-color="#96446e" stop-opacity="1"></stop></linearGradient></defs><defs><linearGradient id="grad2_3" x1="0%" y1="0%" x2="56.3%" y2="100%"><stop offset="14.444444444444446%" stop-color="#3d3056" stop-opacity="1"></stop><stop offset="85.55555555555554%" stop-color="#96446e" stop-opacity="1"></stop></linearGradient></defs><defs><linearGradient id="grad2_4" x1="0%" y1="0%" x2="56.3%" y2="100%"><stop offset="14.444444444444446%" stop-color="#3d3056" stop-opacity="1"></stop><stop offset="85.55555555555554%" stop-color="#001220" stop-opacity="1"></stop></linearGradient></defs><g transform="translate(3840, 0)"><path d="M0 1944C-287.6 1948.3 -575.2 1952.6 -743.9 1796C-912.6 1639.5 -962.4 1322.1 -1137 1137C-1311.7 951.9 -1611.2 899.1 -1766.5 731.7C-1921.8 564.2 -1932.9 282.1 -1944 0L0 0Z" fill="#18223c"></path><path d="M0 1555.2C-230.1 1558.6 -460.2 1562.1 -595.1 1436.8C-730.1 1311.6 -769.9 1057.7 -909.6 909.6C-1049.3 761.6 -1288.9 719.3 -1413.2 585.4C-1537.4 451.4 -1546.3 225.7 -1555.2 0L0 0Z" fill="#683a67"></path><path d="M0 1166.4C-172.6 1169 -345.1 1171.5 -446.4 1077.6C-547.6 983.7 -577.4 793.3 -682.2 682.2C-787 571.2 -966.7 539.5 -1059.9 439C-1153.1 338.5 -1159.7 169.3 -1166.4 0L0 0Z" fill="#c0526a"></path><path d="M0 777.6C-115 779.3 -230.1 781 -297.6 718.4C-365.1 655.8 -385 528.8 -454.8 454.8C-524.7 380.8 -644.5 359.7 -706.6 292.7C-768.7 225.7 -773.2 112.8 -777.6 0L0 0Z" fill="#f6884d"></path><path d="M0 388.8C-57.5 389.7 -115 390.5 -148.8 359.2C-182.5 327.9 -192.5 264.4 -227.4 227.4C-262.3 190.4 -322.2 179.8 -353.3 146.3C-384.4 112.8 -386.6 56.4 -388.8 0L0 0Z" fill="#fbae3c"></path></g><g transform="translate(0, 2160)"><path d="M0 -1944C206.4 -1770.5 412.7 -1596.9 617.3 -1490.2C821.8 -1383.5 1024.5 -1343.7 1238.1 -1238.1C1451.8 -1132.6 1676.5 -961.3 1796 -743.9C1915.5 -526.6 1929.8 -263.3 1944 0L0 0Z" fill="#18223c"></path><path d="M0 -1555.2C165.1 -1416.4 330.2 -1277.5 493.8 -1192.2C657.4 -1106.8 819.6 -1075 990.5 -990.5C1161.5 -906.1 1341.2 -769 1436.8 -595.1C1532.4 -421.3 1543.8 -210.6 1555.2 0L0 0Z" fill="#683a67"></path><path d="M0 -1166.4C123.8 -1062.3 247.6 -958.1 370.4 -894.1C493.1 -830.1 614.7 -806.2 742.9 -742.9C871.1 -679.5 1005.9 -576.8 1077.6 -446.4C1149.3 -316 1157.9 -158 1166.4 0L0 0Z" fill="#c0526a"></path><path d="M0 -777.6C82.5 -708.2 165.1 -638.8 246.9 -596.1C328.7 -553.4 409.8 -537.5 495.3 -495.3C580.7 -453 670.6 -384.5 718.4 -297.6C766.2 -210.6 771.9 -105.3 777.6 0L0 0Z" fill="#f6884d"></path><path d="M0 -388.8C41.3 -354.1 82.5 -319.4 123.5 -298C164.4 -276.7 204.9 -268.7 247.6 -247.6C290.4 -226.5 335.3 -192.3 359.2 -148.8C383.1 -105.3 386 -52.7 388.8 0L0 0Z" fill="#fbae3c"></path></g></svg>