<svg id="visual" viewBox="0 0 1920 1080" width="1920" height="1080" xmlns="http://www.w3.org/2000/svg" xmlns:xlink="http://www.w3.org/1999/xlink" version="1.1"><rect x="0" y="0" width="1920" height="1080" fill="#001220"></rect><defs><linearGradient id="grad1_0" x1="43.8%" y1="0%" x2="100%" y2="100%"><stop offset="14.444444444444446%" stop-color="#fcaf3c" stop-opacity="1"></stop><stop offset="85.55555555555554%" stop-color="#fcaf3c" stop-opacity="1"></stop></linearGradient></defs><defs><linearGradient id="grad1_1" x1="43.8%" y1="0%" x2="100%" y2="100%"><stop offset="14.444444444444446%" stop-color="#fcaf3c" stop-opacity="1"></stop><stop offset="85.55555555555554%" stop-color="#cd5867" stop-opacity="1"></stop></linearGradient></defs><defs><linearGradient id="grad1_2" x1="43.8%" y1="0%" x2="100%" y2="100%"><stop offset="14.444444444444446%" stop-color="#5a3763" stop-opacity="1"></stop><stop offset="85.55555555555554%" stop-color="#cd5867" stop-opacity="1"></stop></linearGradient></defs><defs><linearGradient id="grad1_3" x1="43.8%" y1="0%" x2="100%" y2="100%"><stop offset="14.444444444444446%" stop-color="#5a3763" stop-opacity="1"></stop><stop offset="85.55555555555554%" stop-color="#001220" stop-opacity="1"></stop></linearGradient></defs><defs><linearGradient id="grad2_0" x1="0%" y1="0%" x2="56.3%" y2="100%"><stop offset="14.444444444444446%" stop-color="#fcaf3c" stop-opacity="1"></stop><stop offset="85.55555555555554%" stop-color="#fcaf3c" stop-opacity="1"></stop></linearGradient></defs><defs><linearGradient id="grad2_1" x1="0%" y1="0%" x2="56.3%" y2="100%"><stop offset="14.444444444444446%" stop-color="#cd5867" stop-opacity="1"></stop><stop offset="85.55555555555554%" stop-color="#fcaf3c" stop-opacity="1"></stop></linearGradient></defs><defs><linearGradient id="grad2_2" x1="0%" y1="0%" x2="56.3%" y2="100%"><stop offset="14.444444444444446%" stop-color="#cd5867" stop-opacity="1"></stop><stop offset="85.55555555555554%" stop-color="#5a3763" stop-opacity="1"></stop></linearGradient></defs><defs><linearGradient id="grad2_3" x1="0%" y1="0%" x2="56.3%" y2="100%"><stop offset="14.444444444444446%" stop-color="#001220" stop-opacity="1"></stop><stop offset="85.55555555555554%" stop-color="#5a3763" stop-opacity="1"></stop></linearGradient></defs><g transform="translate(1920, 0)"><path d="M0 972C-62.7 894.6 -125.4 817.3 -217.7 812.3C-309.9 807.4 -431.8 875 -480.5 832.3C-529.2 789.5 -504.7 636.6 -573.5 573.5C-642.2 510.3 -804.3 537 -841.8 486C-879.2 435 -792.1 306.4 -793 212.5C-794 118.6 -883 59.3 -972 0L0 0Z" fill="#242746"></path><path d="M0 729C-47 671 -94 612.9 -163.3 609.3C-232.5 605.6 -323.9 656.2 -360.4 624.2C-396.9 592.2 -378.5 477.5 -430.1 430.1C-481.7 382.7 -603.2 402.7 -631.3 364.5C-659.4 326.3 -594.1 229.8 -594.8 159.4C-595.5 88.9 -662.2 44.5 -729 0L0 0Z" fill="#97446e"></path><path d="M0 486C-31.3 447.3 -62.7 408.6 -108.8 406.2C-155 403.7 -215.9 437.5 -240.2 416.1C-264.6 394.8 -252.3 318.3 -286.7 286.7C-321.1 255.2 -402.2 268.5 -420.9 243C-439.6 217.5 -396 153.2 -396.5 106.2C-397 59.3 -441.5 29.6 -486 0L0 0Z" fill="#f27d53"></path><path d="M0 243C-15.7 223.7 -31.3 204.3 -54.4 203.1C-77.5 201.9 -108 218.7 -120.1 208.1C-132.3 197.4 -126.2 159.2 -143.4 143.4C-160.6 127.6 -201.1 134.2 -210.4 121.5C-219.8 108.8 -198 76.6 -198.3 53.1C-198.5 29.6 -220.7 14.8 -243 0L0 0Z" fill="#fcaf3c"></path></g><g transform="translate(0, 1080)"><path d="M0 -972C66.2 -880 132.3 -787.9 201.1 -750.5C269.9 -713.1 341.3 -730.4 415 -718.8C488.7 -707.2 564.8 -666.6 608.8 -608.8C652.8 -551.1 664.8 -476.2 724 -418C783.2 -359.8 889.7 -318.4 938.9 -251.6C988.1 -184.7 980 -92.3 972 0L0 0Z" fill="#242746"></path><path d="M0 -729C49.6 -660 99.2 -590.9 150.8 -562.9C202.4 -534.9 256 -547.8 311.2 -539.1C366.5 -530.4 423.6 -499.9 456.6 -456.6C489.6 -413.3 498.6 -357.1 543 -313.5C587.4 -269.9 667.3 -238.8 704.2 -188.7C741.1 -138.5 735 -69.3 729 0L0 0Z" fill="#97446e"></path><path d="M0 -486C33.1 -440 66.2 -394 100.6 -375.3C134.9 -356.6 170.6 -365.2 207.5 -359.4C244.4 -353.6 282.4 -333.3 304.4 -304.4C326.4 -275.5 332.4 -238.1 362 -209C391.6 -179.9 444.8 -159.2 469.4 -125.8C494 -92.3 490 -46.2 486 0L0 0Z" fill="#f27d53"></path><path d="M0 -243C16.5 -220 33.1 -197 50.3 -187.6C67.5 -178.3 85.3 -182.6 103.7 -179.7C122.2 -176.8 141.2 -166.6 152.2 -152.2C163.2 -137.8 166.2 -119 181 -104.5C195.8 -90 222.4 -79.6 234.7 -62.9C247 -46.2 245 -23.1 243 0L0 0Z" fill="#fcaf3c"></path></g></svg>